<svg width="32" height="32" viewBox="0 0 32 32" fill="none" xmlns="http://www.w3.org/2000/svg">
<rect width="32" height="32" rx="16" fill="#252525"/>
<path d="M6.65812 23.3848C6.47738 23.3848 6.34183 23.3622 6.25146 23.317C6.16109 23.2568 6.11591 23.1739 6.11591 23.0685C6.11591 22.933 6.17615 22.8501 6.29664 22.82C6.4322 22.7748 6.58281 22.7221 6.74849 22.6619C7.0949 22.5414 7.39613 22.3305 7.65218 22.0293C7.92328 21.728 8.08896 21.344 8.1492 20.8771C8.23957 20.1842 8.32994 19.3333 8.42031 18.3242C8.52574 17.3 8.63117 16.208 8.7366 15.0483C8.84203 13.8885 8.9324 12.7439 9.00771 11.6143C9.02277 11.5239 9.0303 11.4109 9.0303 11.2754C9.0303 11.1398 9.0303 10.9967 9.0303 10.8461C9.0303 10.575 8.98512 10.3642 8.89475 10.2135C8.81944 10.0479 8.68389 9.91232 8.48809 9.80689C8.30735 9.6864 8.11155 9.5885 7.90069 9.51319C7.68983 9.42282 7.46391 9.34751 7.22292 9.28727C7.04219 9.24208 6.8991 9.18184 6.79367 9.10653C6.68824 9.03122 6.63553 8.93332 6.63553 8.81283C6.63553 8.67728 6.69577 8.58691 6.81626 8.54172C6.93676 8.49654 7.07984 8.47395 7.24552 8.47395C7.47144 8.47395 7.75008 8.48148 8.08143 8.49654C8.41278 8.5116 8.77426 8.52666 9.16585 8.54172C9.57251 8.54172 9.97917 8.54925 10.3858 8.56432C10.8076 8.57938 11.1916 8.58691 11.538 8.58691C11.6585 8.58691 11.7715 8.63209 11.8769 8.72246C11.9823 8.79777 12.0501 8.88814 12.0802 8.99357C12.1857 9.27974 12.2836 9.55837 12.3739 9.82948C12.4643 10.0855 12.5622 10.3566 12.6676 10.6428L15.9887 18.5727C16.0188 18.6329 16.0565 18.6706 16.1017 18.6856C16.1619 18.6856 16.2071 18.648 16.2372 18.5727L19.4679 11.0721C19.5733 10.5449 19.6562 10.1156 19.7164 9.7843C19.7917 9.45294 19.8595 9.18937 19.9197 8.99357C19.98 8.79777 20.1005 8.69987 20.2812 8.69987H21.2527C21.8853 8.66975 22.5404 8.62456 23.2182 8.56432C23.911 8.48901 24.4532 8.45135 24.8448 8.45135C24.9955 8.45135 25.1235 8.48148 25.2289 8.54172C25.3494 8.58691 25.4097 8.66975 25.4097 8.79024C25.4097 8.92579 25.3569 9.02369 25.2515 9.08394C25.1611 9.14418 25.0406 9.1969 24.89 9.24208C24.7997 9.27221 24.6942 9.31739 24.5737 9.37764C24.4532 9.42282 24.3478 9.46801 24.2574 9.51319C23.8659 9.69393 23.5722 9.90479 23.3764 10.1458C23.1956 10.3717 23.1203 10.7407 23.1504 11.2528C23.1806 12.3372 23.2182 13.2861 23.2634 14.0994C23.3086 14.9127 23.3462 15.6658 23.3764 16.3586C23.4215 17.0515 23.4667 17.7744 23.5119 18.5275C23.5722 19.2655 23.6324 20.1315 23.6926 21.1256C23.7228 21.5172 23.8809 21.8335 24.1671 22.0745C24.4683 22.3004 24.8599 22.4736 25.3419 22.5941C25.4925 22.6393 25.6205 22.692 25.7259 22.7522C25.8314 22.8125 25.8841 22.9104 25.8841 23.0459C25.8841 23.1514 25.8389 23.2342 25.7485 23.2944C25.6582 23.3547 25.5452 23.3848 25.4097 23.3848C25.0783 23.3848 24.6942 23.3697 24.2574 23.3396C23.8357 23.3246 23.414 23.3095 22.9923 23.2944C22.5856 23.2794 22.2317 23.2718 21.9305 23.2718C21.6292 23.2718 21.2903 23.2794 20.9138 23.2944C20.5523 23.3095 20.1833 23.3246 19.8068 23.3396C19.4302 23.3697 19.0688 23.3848 18.7224 23.3848C18.5868 23.3848 18.4663 23.3622 18.3609 23.317C18.2555 23.2568 18.2027 23.1739 18.2027 23.0685C18.2027 22.933 18.2555 22.8275 18.3609 22.7522C18.4663 22.6769 18.5943 22.6242 18.745 22.5941C19.3022 22.4887 19.6863 22.338 19.8972 22.1422C20.108 21.9314 20.2059 21.5925 20.1909 21.1256C20.1457 20.1918 20.108 19.2655 20.0779 18.3467C20.0478 17.4129 20.0176 16.5017 19.9875 15.6131C19.9725 14.7094 19.9423 13.8358 19.8972 12.9924C19.8972 12.887 19.867 12.8418 19.8068 12.8568C19.7616 12.8568 19.7164 12.9096 19.6712 13.015L15.3561 23.2718C15.2808 23.4827 15.1679 23.5731 15.0172 23.543C14.8666 23.5128 14.7612 23.4375 14.7009 23.317C13.9629 21.5699 13.1873 19.8454 12.3739 18.1434C11.5757 16.4415 10.8377 14.7546 10.1599 13.0828C10.1147 12.9472 10.0394 12.902 9.93399 12.9472C9.84362 12.9773 9.79091 13.0752 9.77584 13.2409C9.73066 13.994 9.69301 14.8224 9.66288 15.726C9.63276 16.6147 9.6177 17.5184 9.6177 18.4371C9.6177 19.3408 9.6177 20.1842 9.6177 20.9674C9.6177 21.3892 9.75325 21.7356 10.0244 22.0067C10.2955 22.2627 10.7247 22.4585 11.3121 22.5941C11.4627 22.6242 11.6058 22.6769 11.7414 22.7522C11.8769 22.8125 11.9447 22.9104 11.9447 23.0459C11.9447 23.1514 11.8844 23.2342 11.764 23.2944C11.6435 23.3547 11.5154 23.3848 11.3799 23.3848C10.9732 23.3848 10.6569 23.3697 10.431 23.3396C10.2051 23.3246 10.0018 23.317 9.82103 23.317C9.64029 23.302 9.39178 23.2944 9.07549 23.2944C8.74413 23.2944 8.40525 23.302 8.05884 23.317C7.71242 23.3321 7.41119 23.3472 7.15515 23.3622C6.8991 23.3773 6.73343 23.3848 6.65812 23.3848Z" fill="white"/>
</svg>
