<svg width="82" height="82" viewBox="0 0 82 82" fill="none" xmlns="http://www.w3.org/2000/svg">
<g clip-path="url(#clip0_723_441)">
<rect x="23.071" y="64.1117" width="36.1372" height="7.4248" rx="2" fill="#4375B5"/>
<path d="M52.6929 1.1504C52.3215 0.759217 51.8123 0.524384 51.2845 0.524384H19.6865C13.8558 0.524384 9.04297 5.31807 9.04297 11.1481V70.9002C9.04297 76.7309 13.8558 81.5245 19.6865 81.5245H62.5732C68.4039 81.5245 73.2167 76.7309 73.2167 70.9002V23.4546C73.2167 22.946 72.9819 22.4572 72.6494 22.0852L52.6929 1.1504ZM53.2602 7.43095L66.6235 21.4591H57.9365C55.3539 21.4591 53.2602 19.3852 53.2602 16.8027V7.43095ZM62.5732 77.6115H19.6865C16.028 77.6115 12.956 74.579 12.956 70.9002V11.1481C12.956 7.48966 16.0082 4.43745 19.6865 4.43745H49.3471V16.8027C49.3471 21.5568 53.1823 25.3722 57.9365 25.3722H69.3036V70.9002C69.3036 74.579 66.2514 77.6115 62.5732 77.6115Z" fill="white"/>
<path d="M57.2319 64.1117H25.0276C23.9517 64.1117 23.071 64.9917 23.071 66.0682C23.071 67.1441 23.9517 68.0247 25.0276 68.0247H57.2516C58.3275 68.0247 59.2082 67.1441 59.2082 66.0682C59.2082 64.9917 58.3275 64.1117 57.2319 64.1117Z" fill="white"/>
<path d="M39.7017 57.0877C40.0737 57.4789 40.5823 57.7137 41.1299 57.7137C41.678 57.7137 42.1866 57.4789 42.558 57.0877L54.0234 44.7812C54.7669 43.9982 54.7082 42.7462 53.9258 42.0225C53.1428 41.2791 51.8908 41.3372 51.1671 42.1201L43.0864 50.7873V29.4225C43.0864 28.3459 42.2058 27.4659 41.1299 27.4659C40.054 27.4659 39.1733 28.3459 39.1733 29.4225V50.7873L31.1124 42.1201C30.3689 41.3378 29.1361 41.2791 28.3537 42.0225C27.5713 42.7659 27.5126 43.9988 28.2561 44.7812L39.7017 57.0877Z" fill="white"/>
</g>
<defs>
<clipPath id="clip0_723_441">
<rect width="81" height="81" fill="white" transform="translate(0.5 0.682587)"/>
</clipPath>
</defs>
</svg>
